<svg xmlns="http://www.w3.org/2000/svg" xmlns:xlink="http://www.w3.org/1999/xlink" width="500" zoomAndPan="magnify" viewBox="0 0 375 374.999991" height="500" preserveAspectRatio="xMidYMid meet" version="1.0"><defs><clipPath id="b76459cdad"><path d="M 108 54 L 186 54 L 186 132 L 108 132 Z M 108 54 " clip-rule="nonzero"/></clipPath><clipPath id="725dc3f2d8"><path d="M 106.074219 0 L 374.683594 105.953125 L 268.730469 374.5625 L 0.121094 268.609375 Z M 106.074219 0 " clip-rule="nonzero"/></clipPath><clipPath id="9a98c79963"><path d="M 106.074219 0 L 374.683594 105.953125 L 268.730469 374.5625 L 0.121094 268.609375 Z M 106.074219 0 " clip-rule="nonzero"/></clipPath><clipPath id="c4950bd326"><path d="M 81 27 L 212 27 L 212 159 L 81 159 Z M 81 27 " clip-rule="nonzero"/></clipPath><clipPath id="8653359cac"><path d="M 106.074219 0 L 374.683594 105.953125 L 268.730469 374.5625 L 0.121094 268.609375 Z M 106.074219 0 " clip-rule="nonzero"/></clipPath><clipPath id="cb80c5ed80"><path d="M 106.074219 0 L 374.683594 105.953125 L 268.730469 374.5625 L 0.121094 268.609375 Z M 106.074219 0 " clip-rule="nonzero"/></clipPath><clipPath id="c6e0b929e5"><path d="M 136 90 L 320 90 L 320 323 L 136 323 Z M 136 90 " clip-rule="nonzero"/></clipPath><clipPath id="686503106a"><path d="M 106.074219 0 L 374.683594 105.953125 L 268.730469 374.5625 L 0.121094 268.609375 Z M 106.074219 0 " clip-rule="nonzero"/></clipPath><clipPath id="130bd668cd"><path d="M 106.074219 0 L 374.683594 105.953125 L 268.730469 374.5625 L 0.121094 268.609375 Z M 106.074219 0 " clip-rule="nonzero"/></clipPath><clipPath id="484f40eb92"><path d="M 136 91 L 210 91 L 210 323 L 136 323 Z M 136 91 " clip-rule="nonzero"/></clipPath><clipPath id="d0ddf8d31a"><path d="M 106.074219 0 L 374.683594 105.953125 L 268.730469 374.5625 L 0.121094 268.609375 Z M 106.074219 0 " clip-rule="nonzero"/></clipPath><clipPath id="038e9192d2"><path d="M 106.074219 0 L 374.683594 105.953125 L 268.730469 374.5625 L 0.121094 268.609375 Z M 106.074219 0 " clip-rule="nonzero"/></clipPath></defs><g clip-path="url(#b76459cdad)"><g clip-path="url(#725dc3f2d8)"><g clip-path="url(#9a98c79963)"><path fill="#5ce1e6" d="M 131.3125 57.644531 C 111.785156 66.125 102.90625 88.632812 111.386719 108.164062 C 119.867188 127.695312 142.375 136.574219 161.90625 128.09375 C 181.4375 119.613281 190.316406 97.101562 181.835938 77.570312 C 173.351562 58.042969 150.496094 49.316406 131.3125 57.644531 Z M 157.414062 118.230469 C 143.464844 124.285156 127.207031 117.875 121.152344 103.925781 C 115.09375 89.972656 121.503906 73.71875 135.457031 67.660156 C 149.40625 61.601562 165.664062 68.015625 171.71875 81.964844 C 177.777344 95.914062 171.367188 112.171875 157.414062 118.230469 Z M 157.414062 118.230469 " fill-opacity="1" fill-rule="nonzero"/></g></g></g><g clip-path="url(#c4950bd326)"><g clip-path="url(#8653359cac)"><g clip-path="url(#cb80c5ed80)"><path fill="#5ce1e6" d="M 120.460938 33.132812 C 87.332031 47.519531 72.238281 85.785156 86.625 118.917969 C 101.011719 152.050781 139.277344 167.144531 172.410156 152.753906 C 205.539062 138.367188 220.632812 100.101562 206.246094 66.972656 C 191.859375 33.839844 153.34375 18.648438 120.460938 33.132812 Z M 168.265625 142.742188 C 140.714844 154.703125 108.703125 142.078125 96.738281 114.527344 C 84.773438 86.972656 97.402344 54.960938 124.953125 42.996094 C 152.503906 31.03125 184.515625 43.660156 196.480469 71.210938 C 208.445312 98.761719 195.570312 130.675781 168.265625 142.742188 Z M 168.265625 142.742188 " fill-opacity="1" fill-rule="nonzero"/></g></g></g><g clip-path="url(#c6e0b929e5)"><g clip-path="url(#686503106a)"><g clip-path="url(#130bd668cd)"><path fill="#36d698" d="M 149.898438 91.855469 L 317.910156 239.628906 C 320.917969 242.257812 318.695312 247.164062 314.796875 246.78125 L 211.863281 238.835938 C 210.515625 238.59375 209.121094 239.199219 208.375 240.351562 L 143.910156 320.992188 C 141.527344 324.097656 136.425781 322.375 136.558594 318.382812 L 143.273438 94.730469 C 143.207031 91.238281 147.390625 89.421875 149.898438 91.855469 Z M 149.898438 91.855469 " fill-opacity="1" fill-rule="nonzero"/></g></g></g><g clip-path="url(#484f40eb92)"><g clip-path="url(#d0ddf8d31a)"><g clip-path="url(#038e9192d2)"><path fill="#58ffbe" d="M 143.910156 320.992188 L 208.375 240.351562 C 208.824219 239.949219 209.371094 239.300781 209.96875 239.246094 L 145.753906 91.375 C 144.359375 91.980469 143.265625 93.285156 143.175781 94.980469 L 136.558594 318.382812 C 136.425781 322.375 141.429688 324.347656 143.910156 320.992188 Z M 143.910156 320.992188 " fill-opacity="1" fill-rule="nonzero"/></g></g></g></svg>